HIERARCHY
ROOT reference
{
	OFFSET 0.000000 0.000000 0.000000
	CHANNELS 6 Xposition Yposition Zposition Xrotation Yrotation Zrotation
	JOINT root
	{
		OFFSET 0.000000 88.199997 0.000000
		CHANNELS 3 Xrotation Yrotation Zrotation
		JOINT Hips
		{
			OFFSET 0.000000 0.000000 0.000000
			CHANNELS 3 Xrotation Yrotation Zrotation
			JOINT Spine
			{
				OFFSET 0.013598 -0.105484 -0.026471
				CHANNELS 3 Xrotation Yrotation Zrotation
				JOINT Spine1
				{
					OFFSET -5.027500 17.193298 4.853540
					CHANNELS 3 Xrotation Yrotation Zrotation
					JOINT Spine2
					{
						OFFSET -6.489570 17.043396 3.457121
						CHANNELS 3 Xrotation Yrotation Zrotation
						JOINT Neck
						{
							OFFSET -8.669390 15.586197 5.140721
							CHANNELS 3 Xrotation Yrotation Zrotation
							JOINT Head
							{
								OFFSET -6.523951 8.554840 4.152540
								CHANNELS 3 Xrotation Yrotation Zrotation
								End Site
								{
									OFFSET 0.000000 0.100006 0.000000
								}
							}
						}
						JOINT RightShoulder
						{
							OFFSET -11.633801 14.542206 3.299621
							CHANNELS 3 Xrotation Yrotation Zrotation
							JOINT RightArm
							{
								OFFSET -12.870399 -8.032135 -5.333399
								CHANNELS 3 Xrotation Yrotation Zrotation
								JOINT RightForearm
								{
									OFFSET -25.966297 -13.786201 -0.595390
									CHANNELS 3 Xrotation Yrotation Zrotation
									JOINT RightHand
									{
										OFFSET -20.889801 -1.520020 13.516901
										CHANNELS 3 Xrotation Yrotation Zrotation
										End Site
										{
											OFFSET 0.000000 0.099998 0.000000
										}
									}
								}
							}
						}
						JOINT LeftShoulder
						{
							OFFSET -5.713749 16.618195 6.992720
							CHANNELS 3 Xrotation Yrotation Zrotation
							JOINT LeftArm
							{
								OFFSET 14.245000 3.247314 6.718699
								CHANNELS 3 Xrotation Yrotation Zrotation
								JOINT LeftForearm
								{
									OFFSET 23.957701 -14.592697 -8.817431
									CHANNELS 3 Xrotation Yrotation Zrotation
									JOINT LeftHand
									{
										OFFSET 7.512081 -21.311096 10.526399
										CHANNELS 3 Xrotation Yrotation Zrotation
										End Site
										{
											OFFSET 0.000000 0.099998 0.000000
										}
									}
								}
							}
						}
					}
				}
			}
			JOINT RightUpLeg
			{
				OFFSET -8.373450 -0.383102 -4.593220
				CHANNELS 3 Xrotation Yrotation Zrotation
				JOINT RightLeg
				{
					OFFSET -19.962498 -39.044701 10.208101
					CHANNELS 3 Xrotation Yrotation Zrotation
					JOINT RightFoot
					{
						OFFSET -1.150379 -40.875301 -4.843560
						CHANNELS 3 Xrotation Yrotation Zrotation
						JOINT RightToe
						{
							OFFSET -13.504299 -6.853480 9.736690
							CHANNELS 3 Xrotation Yrotation Zrotation
							End Site
							{
								OFFSET 0.000000 0.100000 0.000000
							}
						}
					}
				}
			}
			JOINT LeftUpLeg
			{
				OFFSET 8.373440 0.383102 4.593220
				CHANNELS 3 Xrotation Yrotation Zrotation
				JOINT LeftLeg
				{
					OFFSET 13.247299 -42.688099 5.425308
					CHANNELS 3 Xrotation Yrotation Zrotation
					JOINT LeftFoot
					{
						OFFSET 12.334202 -37.687599 -11.094401
						CHANNELS 3 Xrotation Yrotation Zrotation
						JOINT LeftToe
						{
							OFFSET -0.239304 -7.519040 16.356800
							CHANNELS 3 Xrotation Yrotation Zrotation
							End Site
							{
								OFFSET 0.000000 0.100000 0.000000
							}
						}
					}
				}
			}
		}
	}
}
MOTION
Frames: 8
Frame Time: 0.041667
0.000000 0.000000 0.000000 -0.000000 0.000000 -0.000000 -0.000001 -0.000001 -0.000001 0.000001 -0.000004 -0.000003 0.000003 -0.000004 -0.000001 -0.000004 0.000000 0.000003 -0.000003 -0.000002 0.000008 -0.000003 0.000000 0.000003 -0.000001 0.000002 -0.000002 -0.000015 -0.000006 0.000001 0.000009 0.000006 -0.000003 -0.000000 -0.000002 -0.000003 0.000015 0.000010 -0.000005 -0.000001 0.000002 0.000003 0.000009 -0.000002 -0.000002 -0.000005 0.000012 0.000001 0.000005 0.000003 0.000004 0.000003 -0.000003 -0.000005 0.000002 -0.000008 0.000005 0.000003 -0.000003 0.000002 0.000000 0.009012 0.000003 0.000005 -0.000002 -0.000012 0.000005 0.000001 0.003306 -0.000004 0.000000 -0.000001 -0.000003 -0.011361 0.000000 
0.000000 0.000000 0.000000 -0.000000 0.000000 -0.000000 -0.000001 -0.000001 -0.000001 0.000001 -0.000004 -0.000003 0.000003 -0.000004 -0.000001 -0.000004 0.000000 0.000003 -0.000003 -0.000002 0.000008 -0.000003 0.000000 0.000003 -0.000001 0.000002 -0.000002 -0.000015 -0.000006 0.000001 0.000009 0.000006 -0.000003 -0.000000 -0.000002 -0.000003 0.000015 0.000010 -0.000005 -0.000001 0.000002 0.000003 0.000009 -0.000002 -0.000002 -0.000005 0.000012 0.000001 0.000005 0.000003 0.000004 0.000003 -0.000003 -0.000005 0.000002 -0.000008 0.000005 0.000003 -0.000003 0.000002 0.000000 0.009012 0.000003 0.000005 -0.000002 -0.000012 0.000005 0.000001 0.003306 -0.000004 0.000000 -0.000001 -0.000003 -0.011361 0.000000 
0.000000 0.000000 0.000000 -0.000000 0.000000 -0.000000 -0.095851 -0.239129 -0.173824 0.084059 0.058052 -0.157988 0.043718 -0.090003 -0.049777 0.044902 -0.032483 -0.048177 0.033308 -0.018543 -0.032520 0.053925 0.115851 0.116671 0.055649 -0.006178 0.286808 0.015443 -0.052639 0.023349 0.243507 -0.311615 0.816742 -0.299254 0.585815 -0.398354 0.016866 -1.362869 -0.852135 -0.036305 0.089854 0.004626 0.144146 -0.265401 -0.171810 0.040586 0.037872 0.047666 0.153568 -0.313597 0.112710 0.025311 0.047781 0.327349 0.229133 -0.040377 0.291298 -0.127895 0.063451 -0.294088 -0.023787 0.009010 -0.008843 0.038087 0.002623 0.319467 0.082888 0.026148 0.003312 0.209847 -0.111524 0.178450 -0.294139 -0.011361 -0.216143 
0.000000 0.000000 0.000000 -0.000000 0.000000 -0.000000 -0.277185 -0.440642 -0.404797 0.204714 0.140579 -0.384366 0.082165 -0.194951 -0.131219 0.072891 -0.046561 -0.130056 0.054182 -0.025740 -0.088033 0.075592 0.208357 0.211156 0.066995 -0.033283 0.505356 0.037305 -0.132904 0.063981 0.472389 -1.148154 1.581539 -0.783633 1.555618 -1.048282 -0.207560 -2.857925 -1.549584 -0.075805 0.162157 0.027163 0.306534 -0.425195 -0.312947 0.030058 0.028039 0.035308 0.312168 -0.674493 0.269586 0.172569 0.037040 0.801880 0.352098 -0.061561 0.447606 -0.230704 0.105770 -0.468771 -0.035123 0.009015 -0.034096 0.156029 -0.215421 0.713722 0.215956 0.068142 0.008557 0.229573 -0.262223 0.484400 -0.503745 -0.011361 -0.555421 
0.000000 0.000000 0.000000 -0.000000 0.000000 -0.000000 -0.546062 -0.588677 -0.693627 0.356852 0.243819 -0.669215 0.116222 -0.306966 -0.243995 0.086695 -0.038885 -0.247005 0.064185 -0.019073 -0.167450 0.045112 0.284380 0.271736 0.009979 -0.058680 0.626090 0.069762 -0.251605 0.123468 0.654296 -2.633789 2.143419 -1.482443 3.004187 -1.998052 -0.528861 -4.419870 -2.201828 -0.117272 0.209097 0.070532 0.468591 -0.454210 -0.416774 -0.040592 -0.037804 -0.047644 0.423798 -1.012254 0.463163 0.439501 -0.075109 1.408551 0.373639 -0.065232 0.474975 -0.297047 0.159759 -0.555709 -0.052353 0.009015 -0.056416 0.351227 -0.623308 1.166894 0.408381 0.128883 0.015959 0.072511 -0.451281 0.881168 -0.623550 -0.010433 -0.972422 
0.000000 0.000000 0.000000 -0.000000 0.000000 -0.000000 -0.905864 -0.656111 -1.041088 0.541289 0.367759 -1.013632 0.147832 -0.419821 -0.383146 0.089458 -0.004671 -0.392891 0.065069 0.004891 -0.266536 -0.027848 0.366717 0.332169 -0.118028 -0.056817 0.723029 0.195579 -0.507552 0.086605 0.651133 -4.871160 2.433131 -2.461705 5.139594 -3.356165 -0.726539 -5.899893 -3.132263 -0.148036 0.236356 0.107991 0.652922 -0.507704 -0.446022 -0.185796 -0.172569 -0.218017 0.419399 -1.163429 0.576476 0.833746 -0.258566 2.129740 0.310636 -0.054459 0.394904 -0.344157 0.179862 -0.592434 -0.090405 0.011373 -0.047429 0.598275 -1.198008 1.682832 0.688762 0.217434 0.026389 -0.210083 -0.670083 1.216173 -0.664830 -0.007719 -1.308761 
0.000000 0.000000 0.000000 -0.000000 0.000000 -0.000000 -1.347681 -0.679746 -1.439461 0.743450 0.501371 -1.389994 0.183765 -0.547983 -0.564947 0.097882 0.020297 -0.596058 0.070945 0.023248 -0.404553 -0.076181 0.479045 0.413934 -0.211936 -0.010230 0.884876 0.409479 -0.877835 -0.061886 0.711907 -7.124848 2.268036 -3.416225 7.351105 -4.715390 -0.854453 -7.535974 -4.109639 -0.176023 0.235928 0.159443 0.869962 -0.461410 -0.421383 -0.291512 -0.270167 -0.341957 0.387660 -1.329197 0.742182 1.354296 -0.490626 2.928855 0.157275 -0.027849 0.199958 -0.340140 0.188978 -0.561212 -0.145555 0.013619 0.013024 0.910031 -1.832193 2.209898 1.041862 0.329037 0.038904 -0.658888 -0.923007 1.594028 -0.534202 -0.001533 -1.657140 
0.000000 0.000000 0.000000 -0.000000 0.000000 -0.000000 -1.868488 -0.690596 -1.885796 0.958855 0.641984 -1.789761 0.228574 -0.684912 -0.794467 0.120184 0.037781 -0.865606 0.087319 0.037874 -0.587570 -0.077895 0.622328 0.542422 -0.252091 0.067926 1.169976 0.709649 -1.347928 -0.336620 0.827983 -9.235688 1.592465 -4.250765 9.401656 -5.937714 -0.323150 -9.101560 -5.345208 -0.196444 0.192428 0.226639 1.129361 -0.328835 -0.335342 -0.327888 -0.303662 -0.384600 0.372407 -1.580445 0.986557 2.013309 -0.709530 3.795838 -0.102580 0.018450 -0.130459 -0.274228 0.165359 -0.432525 -0.216150 0.015867 0.126967 1.285080 -2.485288 2.729738 1.475115 0.466087 0.053318 -1.246625 -1.201936 2.030187 -0.254067 0.003200 -2.015671 
